<svg width="71" height="50" viewBox="0 0 71 50" fill="none" xmlns="http://www.w3.org/2000/svg">
<path d="M40.0277 12.6161C41.2521 11.4053 42.0161 9.72808 42.0287 7.86939C42.0541 4.14702 39.0568 1.10858 35.3344 1.08321C32.9811 1.06717 30.9038 2.26121 29.6857 4.0807C29.3632 4.3993 2.30625 37.2871 2.05283 37.6657C0.828379 38.8765 0.0644388 40.5542 0.0517776 42.4119C0.0264039 46.1348 3.0237 49.1732 6.74608 49.1986C9.09942 49.2146 11.1767 48.0211 12.3948 46.2011C12.7173 45.8825 39.7743 12.9941 40.0277 12.6161Z" fill="white"/>
<path d="M55.4459 28.4155C56.6738 27.2037 57.4393 25.5245 57.452 23.6634C57.4773 19.941 54.48 16.9025 50.7576 16.8772C48.4033 16.8611 46.325 18.0562 45.1069 19.8771C44.7819 20.1982 30.571 37.4734 30.316 37.8544C29.0881 39.0663 28.3226 40.7455 28.3099 42.6061C28.2846 46.329 31.2819 49.3675 35.0042 49.3928C37.3586 49.4089 39.4369 48.2138 40.6545 46.3928C40.9795 46.0723 55.1909 28.7966 55.4459 28.4155Z" fill="white"/>
<path d="M70.2877 8.06198C70.2623 11.7849 67.2239 14.7817 63.5015 14.7563C59.7786 14.7309 56.7818 11.693 56.8072 7.97011C56.8326 4.24773 59.8705 1.25042 63.5934 1.2758C67.3158 1.30117 70.3131 4.33961 70.2877 8.06198Z" fill="white"/>
<path d="M13.7696 7.67679C13.7443 11.3997 10.7058 14.3965 6.98345 14.3711C3.26107 14.3457 0.263771 11.3078 0.289144 7.58491C0.314514 3.86253 3.35295 0.865234 7.07533 0.890604C10.7977 0.915975 13.795 3.95441 13.7696 7.67679Z" fill="white"/>
</svg>
