<svg width="19" height="19" viewBox="0 0 19 19" fill="none" xmlns="http://www.w3.org/2000/svg">
<path d="M5.4826 15.6135L5.7861 15.7972C6.90027 16.4713 8.17072 16.8325 9.45935 16.8413C13.4351 16.8684 16.6912 13.6564 16.7183 9.68065C16.7454 5.70539 13.5334 2.44881 9.55763 2.42171C5.58288 2.39462 2.32578 5.60711 2.29869 9.58237C2.28974 10.8949 2.64568 12.1901 3.32832 13.3277L3.51293 13.6358L2.77423 16.3195L5.4826 15.6135ZM0.381228 18.6791L1.7042 13.8738C0.982642 12.5501 0.608623 11.0707 0.618844 9.57092C0.652252 4.66925 4.66691 0.707939 9.56908 0.74135C14.4713 0.774761 18.4326 4.79044 18.3992 9.6921C18.3658 14.5943 14.3501 18.5556 9.4479 18.5222C7.97663 18.5122 6.52569 18.1304 5.22966 17.4164L0.381228 18.6791Z" fill="white"/>
<path fill-rule="evenodd" clip-rule="evenodd" d="M12.8071 10.8908C12.4423 10.669 11.9683 10.4216 11.5357 10.5947C11.2046 10.7282 10.9899 11.2447 10.7734 11.5073C10.6626 11.6423 10.5312 11.6623 10.3628 11.5935C9.12486 11.09 8.17918 10.2548 7.50169 9.10855C7.38691 8.93021 7.4087 8.79046 7.54972 8.62709C7.75844 8.38481 8.0203 8.10983 8.0785 7.78157C8.13669 7.45382 7.98518 7.06918 7.85135 6.77522C7.68041 6.40062 7.49021 5.86666 7.11722 5.65247C6.77464 5.45579 6.32061 5.56157 6.01266 5.80876C5.48063 6.23656 5.22063 6.90942 5.2237 7.57897C5.22494 7.76925 5.24705 7.95917 5.29006 8.14261C5.39389 8.58441 5.59458 8.99838 5.82186 9.39117C5.99282 9.68792 6.1791 9.97614 6.38021 10.2533C7.03796 11.1598 7.85881 11.9494 8.81124 12.5419C9.28746 12.8377 9.80002 13.0981 10.332 13.2778C10.9284 13.4793 11.4597 13.6884 12.1061 13.5702C12.7825 13.4466 13.4524 13.033 13.7249 12.3836C13.8056 12.1908 13.8467 11.9764 13.8038 11.7726C13.7146 11.3508 13.1465 11.0966 12.8071 10.8908Z" fill="white"/>
</svg>
