<svg width="27" height="20" viewBox="0 0 27 20" fill="none" xmlns="http://www.w3.org/2000/svg">
<path d="M17.6231 10.559L11.1306 13.7162C10.8758 13.8511 10.0152 13.6614 10.0171 13.3732L10.0619 6.80234C10.0639 6.51053 10.9342 6.33265 11.1871 6.47886L17.358 9.89054C17.6166 10.0404 17.8866 10.4184 17.6231 10.559ZM26.1343 6.75597C26.1555 3.6397 23.6465 1.09627 20.5302 1.07503L6.10111 0.976684C2.98484 0.955445 0.442133 3.46444 0.420894 6.58072L0.37513 13.2953C0.353885 16.4123 2.86216 18.955 5.97844 18.9763L20.4076 19.0746C23.5238 19.0958 26.0673 16.5876 26.0885 13.4706L26.1343 6.75597Z" fill="white"/>
</svg>
